<svg width="200" height="200" viewBox="0 0 200 200" fill="none" xmlns="http://www.w3.org/2000/svg">
<path d="M26 127.524C26.4 111.924 29.1667 103.024 30.5 100.524H84C85.3333 102.191 89 106.224 93 109.024C97 111.824 106.333 121.857 110.5 126.524C113.667 131.024 120.4 142.224 122 151.024C123.6 159.824 122 168.024 121 171.024L129 167.024C131.667 165.024 136.8 159.024 136 151.024C135.2 143.024 131 134.024 130 130.024C126.4 114.424 131 109.524 133.5 106.524C138.917 100.024 153.5 102.024 150.5 110.024C143.5 124.024 148.5 133.024 150.5 137.524C153 144.524 155.7 161.724 146.5 174.524C137.3 187.324 120.667 187.524 113.5 186.024C109.9 194.024 73.6667 193.024 56 191.524C54.4 191.524 49.6667 190.857 47.5 190.524C38 193.524 34 191.524 33 191.524C30.2 193.524 26.1667 192.357 24.5 191.524C21.3 190.724 20.1667 189.524 20 189.024C16.4 183.024 23.5 177.857 27.5 176.024C26.8333 166.357 25.6 143.124 26 127.524Z" fill="#FAA032" stroke="#FAA032"/>
<ellipse cx="56" cy="78.5238" rx="40" ry="33.5" fill="#FAA032"/>
<path d="M25 192.024C24.9935 191.835 24.9911 191.642 24.9954 191.458C25.0446 189.785 25.3079 188.332 25.698 186.99C26.0959 185.649 26.6804 184.36 27.6618 182.983C27.7705 182.83 27.8799 182.679 28 182.524C27.8082 182.567 27.6245 182.615 27.4393 182.675C25.7736 183.183 24.2899 184.625 23.7805 186.422C23.2513 188.203 23.6152 190.143 24.6335 191.574C24.7463 191.73 24.8704 191.886 25 192.024Z" fill="#54361C"/>
<path d="M33.1842 192.024C33.1457 191.844 33.1154 191.665 33.0948 191.491C32.922 189.905 33.2915 188.657 33.7689 187.427C34.2619 186.191 34.9369 184.929 35.7322 183.502C35.8176 183.347 35.9067 183.187 36 183.024C35.8218 183.085 35.6486 183.149 35.4805 183.218C33.9501 183.852 32.5778 185.02 31.91 186.689C31.2215 188.32 31.5069 190.461 32.7556 191.662C32.8897 191.795 33.0344 191.918 33.1842 192.024Z" fill="#54361C"/>
<path d="M47 191.024C47.658 190.61 48.2512 190.073 48.7792 189.482C51.4349 186.599 52.1623 182.029 50.7792 178.232C49.9532 175.46 50.0705 172.218 50.1732 169.111C50.5083 162.218 51.345 155.288 52.1975 148.336C52.2932 147.574 52.3981 146.782 52.5 146.024C52.268 146.753 52.039 147.52 51.8253 148.259C49.9113 155.018 48.5209 161.937 48.175 169.025C48.0841 172.249 48.0072 175.539 49.2208 178.816C50.6593 182.099 50.5583 186.078 48.4771 189.251C48.0611 189.893 47.5764 190.504 47 191.024Z" fill="#54361C"/>
<path d="M59 192.024C58.3558 190.918 57.839 189.734 57.5035 188.514C56.9752 186.61 56.922 184.517 57.8175 182.862C58.6961 181.193 60.4152 180.167 62.2242 179.591C65.9343 178.457 69.9547 178.607 73.9275 178.948L77.434 179.24L74.5177 177.255C71.8083 175.357 69.4874 172.827 67.829 169.963C61.6623 160.104 67.3717 147.715 75.2743 139.764C76.1833 138.801 77.0329 137.944 78 137.024C76.9459 137.843 76.0084 138.609 75.0099 139.491C66.4053 146.517 59.2431 159.911 66.0968 170.963C67.9197 174.105 70.4627 176.799 73.4823 178.792L74.0725 177.1C69.9673 176.87 65.7855 176.867 61.7811 178.353C59.8371 179.1 57.8841 180.436 57.0093 182.473C56.1226 184.494 56.4238 186.735 57.1422 188.632C57.6039 189.851 58.2442 190.991 59 192.024Z" fill="#54361C"/>
<path d="M114 186.524C114.3 186.432 114.592 186.275 114.867 186.103C117.313 184.447 118.896 181.865 120.03 179.264C121.149 176.633 121.762 173.817 121.952 170.976C121.972 170.664 121.988 170.346 122 170.024C121.859 170.314 121.72 170.599 121.584 170.88C120.353 173.434 119.257 175.972 118.19 178.48C117.095 180.975 116.156 183.53 114.609 185.824C114.428 186.072 114.233 186.316 114 186.524Z" fill="#54361C"/>
<path d="M37 28.0238C26.2 22.0238 26.5 43.8572 28 55.5238C48.3333 65.8572 89.2 81.6238 90 62.0238C90.8 42.4238 88.6667 36.1905 87.5 35.5238C79.9 27.9238 63.3333 41.0238 56 48.5238C54.1667 44.1905 47.8 34.0238 37 28.0238Z" fill="#FAA032" stroke="#FAA032"/>
<ellipse cx="41" cy="76.5238" rx="5" ry="6.5" transform="rotate(10 41 76.5238)" fill="#54361C"/>
<ellipse cx="67.0528" cy="79.2933" rx="5" ry="6.5" transform="rotate(10 67.0528 79.2933)" fill="#54361C"/>
<path d="M50.1885 91.1103C50.7389 92.4907 52.5492 92.8099 53.5386 91.701L57.2165 87.5788C58.2596 86.4098 57.6144 84.5498 56.0715 84.2777L50.3472 83.2684C48.8043 82.9963 47.5619 84.5235 48.1422 85.9788L50.1885 91.1103Z" fill="#54361C"/>
<path d="M42.7951 90.0086C42.8016 90.2644 42.8204 90.5256 42.8497 90.7855C43.1657 92.9598 43.981 95.973 47.3134 96.4398C50.6144 96.2881 51.7908 93.5616 52.5829 91.5074C52.6638 91.2676 52.7417 91.0186 52.8168 90.7603C52.6269 90.9508 52.4419 91.132 52.2619 91.3041C50.6582 92.8449 48.8386 94.5359 47.4085 94.442C45.9953 94.4146 44.4295 92.5039 43.2075 90.6575C43.0675 90.4445 42.9294 90.2264 42.7951 90.0086Z" fill="#54361C"/>
<path d="M61.6431 93.7451C61.5495 93.9832 61.4425 94.2223 61.3261 94.4565C60.2855 96.3915 58.4888 98.9442 55.1977 98.2431C52.1476 96.9715 51.9748 94.0071 51.933 91.8059C51.939 91.5529 51.9509 91.2922 51.9687 91.0238C52.082 91.2678 52.1939 91.5013 52.3042 91.7246C53.2842 93.7209 54.4157 95.9324 55.7916 96.3333C57.129 96.7909 59.2539 95.5309 61.0337 94.2138C61.2381 94.0615 61.4425 93.9038 61.6431 93.7451Z" fill="#54361C"/>
<path d="M171.5 9.38373C161.1 4.98373 152.667 12.1323 150 16.1323V62.1313C157 58.298 172.8 48.3837 178 42.3837C183.2 36.3837 183.833 29.8837 184 27.3837C183.833 23.2171 181.9 13.7837 171.5 9.38373Z" fill="#DA5310" stroke="#DA5310"/>
<path d="M127.5 9.38373C137.9 4.98373 146.333 12.1323 149 16.1323V62.1313C142 58.298 126.2 48.3837 121 42.3837C115.8 36.3837 115.167 29.8837 115 27.3837C115.167 23.2171 117.1 13.7837 127.5 9.38373Z" fill="#DA5310" stroke="#DA5310"/>
<path d="M149.774 61.1799C149.774 60.9708 149.755 60.6655 149.75 59.9511C149.749 59.6995 149.793 59.5479 149.812 59.3668C149.845 59.0596 149.879 58.7179 149.913 58.5692C149.948 58.4149 149.946 58.2023 150.065 57.469C150.102 57.24 150.146 56.9054 150.265 56.2587C150.335 55.878 150.394 55.3851 150.428 54.8437C150.462 54.3022 150.462 53.7256 150.448 53.3199C150.426 52.6958 150.366 52.2744 150.343 51.9264C150.332 51.7765 150.309 51.6823 150.29 51.3548C150.271 51.0273 150.252 50.4696 150.195 50.4848C150.138 50.5 150.044 51.1049 149.981 51.4685C149.918 51.8321 149.89 51.9361 149.847 52.1787C149.737 52.7977 149.688 53.2361 149.684 53.3456C149.678 53.4839 149.66 53.9866 149.655 54.6641C149.653 54.9163 149.641 54.9824 149.627 55.8624C149.612 56.7425 149.593 58.4343 149.593 59.3343C149.593 60.2342 149.612 60.2909 149.631 60.2965C149.65 60.3021 149.669 60.2548 149.688 59.3042C149.707 58.3536 149.726 56.501 149.731 55.5041C149.736 54.5073 149.727 54.4222 149.722 54.3122C149.703 53.8771 149.688 53.5538 149.736 53.1663C149.768 52.9028 149.841 52.645 149.86 52.5878C149.87 52.5591 149.879 52.5307 149.889 46.7033C149.898 40.8758 149.908 29.2501 149.899 23.2564C149.889 17.2627 149.861 17.2533 149.827 17.2389C149.683 17.1772 149.565 17.1484 149.503 17.1242C149.292 17.042 149.488 17.6525 149.512 17.953C149.576 18.7682 149.488 18.9987 149.464 19.3799C149.432 19.8902 149.45 20.2695 149.436 20.7097C149.423 21.1025 149.431 21.8399 149.426 22.2339C149.42 22.7332 149.393 22.8759 149.378 23.3209C149.365 23.7184 149.373 24.4653 149.369 24.642C149.362 24.8815 149.335 23.8987 149.316 23.6376C149.281 23.1601 149.269 22.7439 149.24 22.3924C149.191 21.7972 149.211 21.3212 149.183 21.1448C149.15 20.9407 149.144 20.6725 149.121 20.4379C149.107 20.3008 149.106 20.175 149.092 19.6639C149.079 19.2002 149.087 18.321 149.096 17.854C149.106 17.387 149.125 17.3587 149.149 17.3299C149.242 17.2178 149.363 17.2149 149.44 17.2007C149.549 17.1803 149.602 17.0909 149.631 17.0718C149.639 17.0665 149.603 17.0528 149.574 17.0526C149.516 17.0523 149.46 17.0906 149.412 17.1334C149.323 17.2135 149.326 17.3953 149.292 17.6054C149.247 17.889 149.259 18.0638 149.211 18.326C149.187 18.4624 149.183 18.5891 149.154 19.0531C149.129 19.4597 149.144 20.2165 149.14 20.625C149.135 21.0334 149.125 21.0712 149.121 21.6578C149.116 22.2444 149.116 23.3786 149.111 23.9771C149.106 24.5755 149.097 24.6039 149.092 25.5778C149.087 26.5518 149.087 28.4705 149.082 32.7056C149.078 36.9407 149.068 43.4341 149.068 46.817C149.068 50.1998 149.077 50.2755 149.082 50.6925C149.087 51.1095 149.087 51.8656 149.078 52.2741C149.065 52.8188 148.944 53.0823 148.887 53.3171C148.851 53.4637 148.839 53.6179 148.782 54.456C148.733 55.1687 148.772 56.5503 148.777 57.2801C148.782 58.1436 148.819 58.3341 148.839 58.5344C148.869 58.8518 148.924 59.1355 148.949 59.3129C148.967 59.445 149.039 59.5754 149.092 59.6901C149.148 59.813 149.22 59.9191 149.254 60.0386C149.292 60.174 149.335 60.3104 149.373 60.4586C149.405 60.5832 149.478 60.6924 149.545 60.8119C149.624 60.9538 149.65 61.0934 149.688 61.2319C149.722 61.3529 149.755 61.4374 149.755 61.4851C149.718 61.5139 149.66 61.5331 149.603 61.5521C149.574 61.5617 149.546 61.5712 149.517 61.6668" stroke="#DA5310" stroke-width="2" stroke-linecap="round"/>
</svg>
