<svg width="200" height="200" viewBox="0 0 200 200" fill="none" xmlns="http://www.w3.org/2000/svg">
<ellipse cx="64.5" cy="138.5" rx="56.5" ry="49.5" fill="#FAA032"/>
<path d="M37.6482 62.5003C22.5471 53.708 22.9666 85.7023 25.064 102.799C53.4949 117.941 110.636 141.045 111.755 112.324C112.874 83.6019 109.891 74.4677 108.259 73.4907C97.6328 62.3538 74.4686 81.5504 64.2148 92.5408C61.6513 86.1908 52.7492 71.2927 37.6482 62.5003Z" fill="#FAA032" stroke="#FAA032"/>
<ellipse cx="7.07329" cy="9.62211" rx="7.07329" ry="9.62211" transform="matrix(0.983306 0.181961 -0.165692 0.986178 37.9516 123.637)" fill="#54361C"/>
<ellipse cx="7.07329" cy="9.62211" rx="7.07329" ry="9.62211" transform="matrix(0.983306 0.181961 -0.165692 0.986178 74.7511 127.743)" fill="#54361C"/>
<path d="M56.7724 157.302C57.3167 158.735 59.18 159.08 60.1583 157.929L67.3391 149.483C68.335 148.311 67.6691 146.475 66.1462 146.193L54.9702 144.125C53.4473 143.843 52.2232 145.33 52.7773 146.788L56.7724 157.302Z" fill="#54361C"/>
<path d="M45.848 154.403C45.8823 154.767 45.9321 155.138 45.9945 155.507C46.63 158.589 47.831 162.838 52.3094 163.459C56.692 163.198 58.3408 159.438 59.6176 156.561C59.7487 156.226 59.8774 155.878 60.0037 155.517C59.7615 155.811 59.5244 156.092 59.2927 156.359C57.2135 158.724 54.8033 161.495 52.3577 161.455C49.9368 161.334 47.8765 158.176 46.3528 155.388C46.1794 155.064 46.0102 154.732 45.848 154.403Z" fill="#54361C"/>
<path d="M72.4709 159.942C72.4709 159.942 72.4709 159.942 72.4709 159.942C72.3201 160.272 72.1524 160.603 71.9736 160.926C70.3718 163.595 67.8586 167.156 63.4478 166.133C59.4147 164.314 59.0908 160.189 58.8287 157.027C58.8144 156.665 58.8068 156.293 58.8058 155.908C58.9377 156.271 59.069 156.62 59.1995 156.954C60.3825 159.923 61.7445 163.392 64.0555 164.232C66.37 164.987 69.3353 162.759 71.6755 160.687C71.9443 160.444 72.2113 160.193 72.4709 159.942Z" fill="#54361C"/>
<path d="M172.456 7.86606C158.691 1.93234 147.529 11.5727 144 16.9669V79C153.265 73.8305 174.176 60.4603 181.059 52.3689C187.941 44.2775 188.779 35.5118 189 32.1403C188.779 26.5213 186.221 13.7998 172.456 7.86606Z" fill="#DA5310" stroke="#DA5310"/>
<path d="M114.544 7.86606C128.309 1.93234 139.471 11.5727 143 16.9669V79C133.735 73.8305 112.824 60.4603 105.941 52.3689C99.0588 44.2775 98.2206 35.5118 98 32.1403C98.2206 26.5213 100.779 13.7998 114.544 7.86606Z" fill="#DA5310" stroke="#DA5310"/>
</svg>
