<svg width="200" height="200" viewBox="0 0 200 200" fill="none" xmlns="http://www.w3.org/2000/svg">
<path d="M147.5 52.5C154.3 48.1 156 67.3333 156 77.5L136.5 72.5C137.333 67.6667 140.7 56.9 147.5 52.5Z" fill="#FAA032" stroke="#FAA032"/>
<path d="M175.5 86.5C185.9 86.5 176.167 99.5 170 106C167 101.5 161.4 91.9 163 89.5C164.6 87.1 172 86.5 175.5 86.5Z" fill="#FAA032" stroke="#FAA032"/>
<path d="M144.5 70C151.7 71.2 161.833 82.8333 166 88.5L169 93C171.333 102 172.6 122.6 159 133C142 146 121.5 122 115.5 116C109.5 110 118 80 120 76.5C121.6 73.7 125.718 70.7573 129 70C131.167 69.5 137.3 68.8 144.5 70Z" fill="#FAA032" stroke="#FAA032"/>
<path d="M164 128.5C165.2 130.5 160.833 132.333 158.5 133C158.167 130 157.6 123.8 158 123C158.5 122 162.5 126 164 128.5Z" fill="#54361C" stroke="#54361C" stroke-width="2" stroke-linejoin="round"/>
<path d="M26.5 46C25.7 57.6 34.8333 63.1667 39.5 64.5C37.1667 70.5 32.2 82.3 31 81.5C29.8 80.7 26.1667 76.5 24.5 74.5C20.1667 70 11.6 58 12 46C12.4 34 18.1667 23 21 19C23.6667 14.5 30.3 7 35.5 13C40.7 19 34.6667 24.8333 31 27C29.8333 28.5 27.3 34.4 26.5 46Z" fill="#FAA032" stroke="#FAA032"/>
<path d="M123 74.5C120.333 73.8333 112.9 70.4 104.5 62C96.1 53.6 83.3333 48.1667 78 46.5C71.3333 45.3333 55.2 45.6 44 56C32.8 66.4 30 76.3333 30 80C29.3333 84.8333 29.3 98.6 34.5 115C34.6639 115.517 34.8199 116.008 34.9683 116.476C34.5806 121.976 33.1077 132.669 30 135C26.8 137.4 33.6667 154 37.5 162C39.3333 165.167 43.8 171.8 47 173C51 174.5 64.5 173.5 59.5 164.5C54.5 155.5 54 163.5 49 147.5C45 139.5 51 135.833 54.5 135C56 135.333 59.4 137.8 61 145C63 154 69 161 69 161C69 161 76 169 84.5 164.5C86.9 162.5 86.3824 158.5 84.5 156.5C81.8333 153.667 76.2 147.4 75 145C73.5 142 72 133 75 124.5C78.5 127 87.4 131.6 95 130C95.5 137.167 97.3 153.1 100.5 159.5C104.5 167.5 106 178 116 176C120.043 175.191 125 174 121 166C119 163.5 116.2 162.8 115 160C113.8 157.2 114.5 150.5 115 147.5C120.5 155.5 132.9 171 138.5 169C144.1 167 144.167 162.167 143.5 160C143.333 158.667 140.3 153.2 129.5 140C128.273 138.5 122 131.5 123 130C123.8 128.8 127.667 125.833 129.5 124.5L123 74.5Z" fill="#FAA032"/>
<path d="M123 74.5C120.333 73.8333 112.9 70.4 104.5 62C96.1 53.6 83.3333 48.1667 78 46.5C71.3333 45.3333 55.2 45.6 44 56C32.8 66.4 30 76.3333 30 80C29.3333 84.8333 29.3 98.6 34.5 115C39.7 131.4 37 122.5 35 116C34.6667 121.333 33.2 132.6 30 135C26.8 137.4 33.6667 154 37.5 162C39.3333 165.167 43.8 171.8 47 173C51 174.5 64.5 173.5 59.5 164.5C54.5 155.5 54 163.5 49 147.5C45 139.5 51 135.833 54.5 135C56 135.333 59.4 137.8 61 145C63 154 69 161 69 161C69 161 76 169 84.5 164.5C86.9 162.5 86.3824 158.5 84.5 156.5C81.8333 153.667 76.2 147.4 75 145C73.5 142 72 133 75 124.5C78.5 127 87.4 131.6 95 130C95.5 137.167 97.3 153.1 100.5 159.5C104.5 167.5 106 178 116 176C120.043 175.191 125 174 121 166C119 163.5 116.2 162.8 115 160C113.8 157.2 114.5 150.5 115 147.5C120.5 155.5 132.9 171 138.5 169C144.1 167 144.167 162.167 143.5 160C143.333 158.667 140.3 153.2 129.5 140C128.273 138.5 122 131.5 123 130C123.8 128.8 127.667 125.833 129.5 124.5L123 74.5Z" stroke="#FAA032"/>
<path d="M144 123C144.047 123.416 144.108 123.826 144.182 124.234C144.841 127.886 146.443 131.246 149.219 133.135C150.131 133.769 151.148 134.256 152.244 134.622C152.247 134.623 152.258 134.626 152.262 134.627C154.288 135.431 156.743 134.944 158.334 133.032C158.593 132.721 158.826 132.38 159 132C158.955 132.416 158.83 132.833 158.659 133.23C157.707 135.68 154.472 137.219 151.738 136.373L151.756 136.378C150.461 136.081 149.195 135.556 148.077 134.777C144.584 132.395 143.358 127.964 143.802 124.246C143.848 123.825 143.914 123.41 144 123Z" fill="#54361C"/>
<path d="M115.5 149C115.355 148.551 115.233 148.087 115.129 147.624C114.248 143.452 114.435 138.839 116.721 134.787C117.191 133.98 117.758 133.211 118.427 132.524C120.834 130.032 123.818 128.191 126.82 126.731C127.227 126.514 127.647 126.306 128 126C127.803 126.432 127.479 126.813 127.176 127.176C124.881 129.722 122.612 132.004 120.573 134.476C120.108 135.037 119.691 135.648 119.313 136.297C117.471 139.534 116.429 143.496 115.699 147.607C115.623 148.065 115.554 148.532 115.5 149Z" fill="#54361C"/>
<path d="M54.5001 135.5C55.1133 134.963 55.7356 134.423 56.3471 133.885C61.7706 129.034 67.3887 124.025 70.2021 117.889C70.5767 117.019 70.869 116.132 71.0485 115.236C72.2048 109.382 71.7406 103.151 70.8394 96.9312C70.7246 96.1199 70.6008 95.3079 70.5001 94.5C70.7945 95.2582 71.1012 96.0184 71.3914 96.7892C73.636 102.677 75.0247 109.196 73.9516 115.764C73.7579 116.921 73.4073 118.031 72.9573 119.075C69.5377 126.375 63.0407 130.765 56.674 134.352C55.9558 134.745 55.2254 135.129 54.5001 135.5Z" fill="#54361C"/>
<path d="M116 176.5C119.5 176.5 120 175.5 120.5 175C121.3 173 116.833 169.833 114 168C118.4 172.8 116.833 175.333 116 176.5Z" fill="#54361C"/>
<path d="M120.5 175C120.236 175.308 119.973 175.634 119.618 175.858C118.541 176.528 117.231 176.615 116 176.661C115.853 176.663 115.786 176.528 115.869 176.407C117.446 174.436 116.614 171.774 115.213 169.888C114.788 169.283 114.32 168.715 113.822 168.163C113.63 167.953 113.893 167.642 114.131 167.797C116.507 169.453 119.2 171.062 120.498 173.788C120.634 174.179 120.673 174.623 120.5 175C120.64 174.61 120.567 174.189 120.41 173.821C118.971 171.286 116.256 169.812 113.869 168.203L114.178 167.837C114.695 168.393 115.181 168.973 115.622 169.6C117.083 171.505 117.926 174.599 116.131 176.593L116 176.339C117.212 176.354 118.486 176.345 119.569 175.776C119.927 175.587 120.21 175.288 120.5 175Z" fill="#54361C"/>
<path d="M139.5 169C142.5 167.5 142.833 166.5 143 166C143 164.4 139.667 162 138 161C140.8 164.6 140 167.833 139.5 169Z" fill="#54361C"/>
<path d="M143 166C142.917 166.33 142.761 166.651 142.552 166.926C141.773 167.919 140.666 168.564 139.579 169.159C139.416 169.243 139.267 169.1 139.337 168.93C139.973 167.256 139.884 165.353 139.249 163.685C138.907 162.776 138.412 161.925 137.82 161.14C137.658 160.932 137.892 160.668 138.118 160.804C139.863 161.942 141.627 163.197 142.726 165.012C142.887 165.318 143.015 165.656 143 166C142.981 165.657 142.826 165.344 142.644 165.06C141.427 163.395 139.622 162.261 137.882 161.196L138.18 160.86C138.819 161.657 139.354 162.545 139.717 163.508C140.393 165.28 140.436 167.324 139.663 169.07L139.421 168.841C140.521 168.313 141.642 167.76 142.479 166.866C142.704 166.617 142.884 166.322 143 166Z" fill="#54361C"/>
<ellipse cx="4" cy="6" rx="4" ry="6" transform="matrix(-0.984808 -0.173648 -0.173648 0.984808 152.981 101.786)" fill="#54361C"/>
<path d="M130.5 149C126.5 153.4 125.5 166.167 125.5 172C125.5 173 127.5 175.8 135.5 179C143.5 182.2 157.167 182.667 163 182.5C165.333 182.333 172.1 181.4 180.5 179C188.9 176.6 191.333 173 191.5 171.5C191 167.5 189.4 157.8 187 151C184.6 144.2 173.5 142.5 171 141.5L164 140.5H158.5H153L146 141.5C140.5 142.5 134.5 144.6 130.5 149Z" fill="#F2D6A5" stroke="#F2D6A5"/>
<ellipse cx="158" cy="151.5" rx="25" ry="8.5" fill="#FAA032"/>
<ellipse cx="158" cy="153" rx="25" ry="7" fill="#54361C"/>
</svg>
