<svg width="200" height="200" viewBox="0 0 200 200" fill="none" xmlns="http://www.w3.org/2000/svg">
<path d="M42 122.5C42.4 106.9 45.1667 98 46.5 95.5H100C101.333 97.1667 105 101.2 109 104C113 106.8 122.333 116.833 126.5 121.5C129.667 126 136.4 137.2 138 146C139.6 154.8 138 163 137 166L145 162C147.667 160 152.8 154 152 146C151.2 138 147 129 146 125C142.4 109.4 147 104.5 149.5 101.5C154.917 95 169.5 97 166.5 105C159.5 119 164.5 128 166.5 132.5C169 139.5 171.7 156.7 162.5 169.5C153.3 182.3 136.667 182.5 129.5 181C125.9 189 89.6667 188 72 186.5C70.4 186.5 65.6667 185.833 63.5 185.5C54 188.5 50 186.5 49 186.5C46.2 188.5 42.1667 187.333 40.5 186.5C37.3 185.7 36.1667 184.5 36 184C32.4 178 39.5 172.833 43.5 171C42.8333 161.333 41.6 138.1 42 122.5Z" fill="#FAA032" stroke="#FAA032"/>
<ellipse cx="72" cy="73.5" rx="40" ry="33.5" fill="#FAA032"/>
<path d="M41 187C40.9935 186.811 40.9911 186.618 40.9954 186.434C41.0446 184.761 41.3079 183.308 41.698 181.966C42.0959 180.625 42.6804 179.336 43.6618 177.959C43.7705 177.806 43.8799 177.656 44 177.5C43.8082 177.543 43.6245 177.591 43.4393 177.651C41.7736 178.159 40.2899 179.602 39.7805 181.398C39.2513 183.179 39.6152 185.119 40.6335 186.55C40.7463 186.706 40.8704 186.863 41 187Z" fill="#54361C"/>
<path d="M49.1842 187C49.1457 186.821 49.1154 186.641 49.0948 186.467C48.922 184.881 49.2915 183.634 49.7689 182.403C50.2619 181.167 50.9369 179.905 51.7322 178.479C51.8176 178.323 51.9067 178.164 52 178C51.8218 178.061 51.6486 178.125 51.4805 178.194C49.9501 178.828 48.5778 179.996 47.91 181.665C47.2215 183.296 47.5069 185.437 48.7556 186.639C48.8897 186.771 49.0344 186.894 49.1842 187Z" fill="#54361C"/>
<path d="M63 186C63.658 185.586 64.2512 185.049 64.7792 184.458C67.4349 181.575 68.1623 177.005 66.7792 173.208C65.9532 170.436 66.0705 167.194 66.1732 164.087C66.5083 157.194 67.345 150.264 68.1975 143.312C68.2932 142.551 68.3981 141.758 68.5 141C68.268 141.729 68.039 142.496 67.8253 143.235C65.9113 149.994 64.5209 156.913 64.175 164.002C64.0841 167.225 64.0072 170.515 65.2208 173.792C66.6593 177.075 66.5583 181.054 64.4771 184.228C64.0611 184.869 63.5764 185.48 63 186Z" fill="#54361C"/>
<path d="M75 187C74.3558 185.894 73.839 184.71 73.5035 183.49C72.9752 181.586 72.922 179.493 73.8175 177.838C74.6961 176.169 76.4152 175.143 78.2242 174.567C81.9343 173.433 85.9547 173.584 89.9275 173.924L93.434 174.216L90.5177 172.231C87.8083 170.333 85.4874 167.803 83.829 164.94C77.6623 155.08 83.3717 142.691 91.2743 134.74C92.1833 133.777 93.0329 132.92 94 132C92.9459 132.819 92.0084 133.585 91.0099 134.467C82.4053 141.493 75.2431 154.887 82.0968 165.939C83.9197 169.082 86.4627 171.775 89.4823 173.769L90.0725 172.076C85.9673 171.846 81.7855 171.843 77.7811 173.329C75.8371 174.076 73.8841 175.412 73.0093 177.449C72.1226 179.47 72.4238 181.711 73.1422 183.608C73.6039 184.827 74.2442 185.967 75 187Z" fill="#54361C"/>
<path d="M130 181.5C130.3 181.408 130.592 181.251 130.867 181.079C133.313 179.424 134.896 176.842 136.03 174.241C137.149 171.609 137.762 168.793 137.952 165.952C137.972 165.64 137.988 165.323 138 165C137.859 165.29 137.72 165.576 137.584 165.856C136.353 168.41 135.257 170.949 134.19 173.456C133.095 175.952 132.156 178.506 130.609 180.8C130.428 181.048 130.233 181.292 130 181.5Z" fill="#54361C"/>
<path d="M53 23C42.2 17 42.5 38.8333 44 50.5C64.3333 60.8333 105.2 76.6 106 57C106.8 37.4 104.667 31.1667 103.5 30.5C95.9 22.9 79.3333 36 72 43.5C70.1667 39.1667 63.8 29 53 23Z" fill="#FAA032" stroke="#FAA032"/>
<ellipse cx="57" cy="71.5" rx="5" ry="6.5" transform="rotate(10 57 71.5)" fill="#54361C"/>
<ellipse cx="83.0528" cy="74.2695" rx="5" ry="6.5" transform="rotate(10 83.0528 74.2695)" fill="#54361C"/>
<path d="M66.1885 86.0865C66.7389 87.4668 68.5492 87.786 69.5386 86.6772L73.2165 82.555C74.2596 81.386 73.6144 79.5259 72.0715 79.2539L66.3472 78.2445C64.8043 77.9725 63.5619 79.4997 64.1422 80.9549L66.1885 86.0865Z" fill="#54361C"/>
<path d="M58.7951 84.9848C58.8016 85.2406 58.8204 85.5018 58.8497 85.7617C59.1657 87.9359 59.981 90.9492 63.3134 91.416C66.6144 91.2643 67.7908 88.5377 68.5829 86.4836C68.6638 86.2438 68.7417 85.9948 68.8168 85.7365C68.6269 85.927 68.4419 86.1082 68.2619 86.2803C66.6582 87.821 64.8386 89.5121 63.4085 89.4182C61.9953 89.3908 60.4295 87.48 59.2075 85.6337C59.0675 85.4207 58.9294 85.2026 58.7951 84.9848Z" fill="#54361C"/>
<path d="M77.6431 88.7213C77.5495 88.9594 77.4425 89.1984 77.3261 89.4327C76.2855 91.3677 74.4888 93.9204 71.1977 93.2192C68.1476 91.9477 67.9748 88.9832 67.933 86.7821C67.939 86.529 67.9509 86.2684 67.9687 86C68.082 86.244 68.1939 86.4775 68.3042 86.7008C69.2842 88.6971 70.4157 90.9085 71.7916 91.3094C73.129 91.767 75.2539 90.507 77.0337 89.19C77.2381 89.0377 77.4425 88.88 77.6431 88.7213Z" fill="#54361C"/>
</svg>
