<svg width="800" height="800" viewBox="0 0 800 800" fill="none" xmlns="http://www.w3.org/2000/svg">
<path d="M9.00006 455.5C1.56213 486.035 28.8337 532.667 50.5004 559C58.5004 536.6 82.5003 525 93.5003 522L624 501.5L646.5 370C644.167 358.5 633.7 333.6 610.5 326C587.3 318.4 563.834 329.167 555 335.5C559.4 303.1 553.167 277.333 549.5 268.5C543.667 252 523.201 220.8 492 220C460.8 219.2 433.334 235 423 244C425.8 216 405.5 183.333 395 170.5C373.5 147.833 322.108 119.048 274 124C206 131 194 153 178.5 177.5C160.807 205.467 159.5 251.333 162 274C138 258.4 113 260.5 103.5 263.5C84.0003 268.5 50.5003 286 40.5003 326C31.7346 361.063 47.5003 406.333 61.5003 426.5C53.8337 425 18.5001 416.5 9.00006 455.5Z" fill="#9A973B" stroke="#9A973B" stroke-width="10"/>
<ellipse cx="403" cy="620" rx="397" ry="150" fill="#F2D6A5"/>
<path d="M407 354C419 355.6 458.667 377.333 477 388L456 428C452.333 445.667 448.6 488.4 463 518C477.4 547.6 525 563 547 567C561.667 571 592.6 584.8 599 608C607 637 587 639 561 644C543.4 648 530.333 638.333 526 633H477C457.8 633 435 629 426 627L402 644C387.333 648.333 344.4 658 290 662C235.6 666 200.667 655 190 649C176.333 643.333 143.6 625.8 122 601C95 570 101 524 101 518C101 512 107 448 117 437C127 426 130 400 190 371C250 342 304 344 339 344C374 344 392 352 407 354Z" fill="#FAA032" stroke="#FAA032" stroke-width="10"/>
<path d="M658 623C632.4 617.4 612.667 617.333 606 618C606 599.054 594.44 591.712 585.481 589.656C582.966 589.533 581.147 589.287 580 589C581.589 589 583.469 589.195 585.481 589.656C594.661 590.106 613.113 588.908 642 582C678.8 573.2 696 557.667 700 551L732 564C740.667 572 755.8 592.4 747 610C738.2 627.6 720.667 630.667 713 630C705.333 630 683.6 628.6 658 623Z" fill="#FAA032"/>
<path d="M606 618C612.667 617.333 632.4 617.4 658 623C683.6 628.6 705.333 630 713 630C720.667 630.667 738.2 627.6 747 610C755.8 592.4 740.667 572 732 564L700 551C696 557.667 678.8 573.2 642 582C605.2 590.8 585.333 590.333 580 589C588.667 589 606 594.8 606 618Z" stroke="#FAA032" stroke-width="10"/>
<path d="M487 316C470.2 315.2 476 371.667 481 400C512.333 395.667 571.8 382.8 559 366C546.2 349.2 533 337 528 333C521.333 327.667 503.8 316.8 487 316Z" fill="#FAA032" stroke="#FAA032" stroke-width="10"/>
<path d="M728 345C726.4 321 678.667 359 655 381L703 456C706.667 450 715.4 434.6 721 421C728 404 730 375 728 345Z" fill="#FAA032" stroke="#FAA032" stroke-width="10"/>
<path d="M547.301 369.684C595.926 363.125 625.463 367.17 655 378C685 389 705 398 718 425C731 452 747.464 496.546 701 542C655 587 607 585 586 587C580 578 555.2 559.4 504 557C452.8 554.6 448.667 483.333 453 448C454.333 438 463.2 411.6 488 386C498.295 375.373 521.01 370.812 547.301 369.684Z" fill="#FAA032"/>
<path d="M545 370C595 363 625 367 655 378M655 378C685 389 705 398 718 425C731 452 747.464 496.546 701 542C655 587 607 585 586 587C580 578 555.2 559.4 504 557C452.8 554.6 448.667 483.333 453 448C454.333 438 463.2 411.6 488 386C512.8 360.4 609.667 370 655 378Z" stroke="#FAA032" stroke-width="10"/>
<path d="M250 434C253.434 434.059 256.902 434.35 260.306 434.76C285.48 438.045 310.263 446.841 327.665 463.557C331.056 466.848 333.821 470.911 336.067 475.36C348.242 501.704 348.154 533.975 346.818 564.674C346.609 568.126 346.348 571.556 346 575C347.002 571.687 347.891 568.343 348.697 564.953C355.252 534.626 358.963 501.651 344.993 470.85C342.345 465.608 338.873 460.583 334.335 456.443C313.809 437.991 286.072 431.737 260.368 432.861C256.89 433.048 253.382 433.393 250 434Z" fill="#54361C"/>
<path d="M159 559C162.365 563.211 166.36 566.974 170.553 570.452C188.056 584.811 210.137 594.346 233.406 596.072C260.229 597.688 286.425 593.63 312.231 588.716C328.016 585.587 343.627 581.877 359.1 577.339L358.613 577.446C376.335 574.844 397.179 572.747 411.755 581.622C420.955 589.067 423.523 603.917 424.948 616.872C425.454 622.216 425.681 627.606 425.505 633C426.345 627.666 426.757 622.243 426.846 616.796C426.617 603.456 426.632 588.437 415.388 577.132C397.419 564.572 376.56 566.567 357.155 568.438L356.668 568.545C341.373 572.43 325.843 575.825 310.297 578.905C284.9 583.758 259.179 588.451 233.757 588.421C212.093 588.113 190.366 581.044 171.68 568.922C167.204 565.98 162.855 562.757 159 559Z" fill="#54361C"/>
<path d="M478.353 380C478.019 385.508 477.703 391.016 477.403 396.525C477.274 398.886 477.148 401.248 477.026 403.61L477.469 402.621C460.617 417.421 450.117 439.563 450.058 462.74C450.019 488.533 457.177 516.021 475.835 535.875C484.408 545.051 495.172 552.092 506.764 556.579C538.815 567.478 568.049 577.863 592.119 601.592L591.904 601.341C594.901 605.201 597.791 609.051 600.407 613.106C601.85 615.379 603.295 617.745 604.191 620.26C604.574 621.431 605.013 623.065 603.951 623.633C602.815 624.102 601.337 623.526 600.119 622.986C601.292 623.654 602.577 624.482 604.14 624.089C604.957 623.832 605.309 622.882 605.34 622.169C605.393 621.422 605.275 620.681 605.131 620.001C604.483 617.211 603.273 614.65 602.06 612.169C599.849 607.753 597.337 603.565 594.696 599.378L594.48 599.127C583.034 587.183 571.19 575.317 556.198 566.846C541.054 558.544 525.262 554.281 510.337 547.732C500.009 543.414 490.687 537.112 483.126 529.031C466.741 511.642 459.278 487.016 457.941 462.529C456.785 441.872 464.747 420.256 479.236 404.599L479.706 404.134L479.679 403.61C479.557 401.248 479.431 398.886 479.303 396.525C479.003 391.016 478.686 385.508 478.353 380Z" fill="#54361C"/>
<path d="M585 584C587.018 584.776 589.129 585.431 591.247 586.006C610.386 590.984 631.225 590.721 650.489 584.012C653.392 582.987 656.251 581.806 659.04 580.463C674.132 573.109 688.483 563.494 699.286 550.439C700.64 548.733 701.99 546.913 703 545C701.461 546.505 699.705 547.828 697.979 549.06C684.442 558.375 669.743 565.067 654.96 571.537C652.398 572.64 649.796 573.652 647.161 574.582C629.709 580.643 610.898 583.674 591.489 584.122C589.333 584.147 587.157 584.123 585 584Z" fill="#54361C"/>
<path d="M596 639C594 640.6 589.167 642.333 587 643C587 642.167 586.8 639 586 633C585.2 627 581 621.833 579 620L590.5 627.5C593.167 630.667 598 637.4 596 639Z" fill="#54361C" stroke="#54361C"/>
<path d="M573 646.5L561 649V638.5C561 634.1 558 627 556.5 624C557.5 624.667 561 627.4 567 633C573 638.6 573.5 644.333 573 646.5Z" fill="#54361C" stroke="#54361C"/>
<path d="M724.683 634.023L712.432 634.402L714.255 624.061C715.019 619.728 713.297 612.215 712.341 609C713.21 609.83 716.182 613.13 721.119 619.687C726.055 626.243 725.552 631.976 724.683 634.023Z" fill="#54361C" stroke="#54361C"/>
<path d="M698 551.5C699.836 551.809 701.611 552.298 703.333 552.884C718.682 558.558 730.715 569.302 740 581.5C740.022 581.53 740.045 581.56 740.067 581.59C749.593 592.992 747.175 608.923 738.341 623.203C737.423 624.801 736.437 626.41 735.5 628C736.939 626.849 738.405 625.654 739.812 624.406C746.1 618.827 751.877 611.768 754.159 602.588C756.6 593.44 753.753 582.901 748.085 575.614C748.057 575.576 748.028 575.538 748 575.5C737.471 561.474 720.939 551.437 703.641 551.009C701.734 551 699.829 551.142 698 551.5Z" fill="#54361C"/>
<path d="M522.5 464.5C522.435 465.585 522.481 466.701 522.605 467.81C523.436 477.668 532.28 488.266 544.023 488.901C544.861 488.968 545.664 488.992 546.5 488.978C556.268 489.115 567.091 482.735 569.515 473.307C569.811 472.213 569.999 471.086 570 470C569.365 470.877 568.635 471.646 567.878 472.342C561.33 478.111 553.922 479.166 546.5 479.022C545.927 479.007 545.387 478.978 544.83 478.933C537.538 478.451 530.391 474.519 524.367 467.098C523.712 466.279 523.08 465.418 522.5 464.5Z" fill="#54361C"/>
<path d="M639.5 483.782C639.541 484.816 639.661 485.855 639.842 486.887C641.216 495.68 648.838 506.972 661.589 505.648C662.838 505.504 664.033 505.238 665.202 504.865C673.58 502.256 681.212 495.414 683.16 486.926C683.392 485.883 683.536 484.814 683.5 483.782C682.899 484.615 682.207 485.336 681.497 486.008C675.632 491.291 669.06 493.638 662.429 495.355C661.745 495.522 661.096 495.638 660.446 495.713C654.811 496.643 647.81 492.493 641.541 486.036C640.847 485.32 640.163 484.576 639.5 483.782Z" fill="#54361C"/>
<path d="M563.5 523C563.409 524.051 563.469 525.136 563.627 526.211C564.762 535.304 574.843 547.123 587.891 542.116C588.814 541.742 589.679 541.301 590.515 540.79C594.953 538.029 597.86 534.139 599.907 530.115C600.928 528.083 601.715 526.001 602.31 523.824C602.602 522.741 602.846 521.645 603.009 520.504C603.056 520.197 603.083 519.934 603.123 519.575C603.129 519.495 603.135 519.414 603.149 519.286C603.154 519.227 603.159 519.168 603.162 519.103C603.163 519.071 603.165 519.037 603.166 519.001C603.17 518.936 603.178 518.843 603.174 518.72C603.165 518.593 603.17 518.431 603.047 518.119C603.015 518.041 602.971 517.953 602.909 517.858C602.843 517.752 602.658 517.528 602.432 517.395C601.95 517.09 601.372 517.163 601.123 517.268C600.851 517.374 600.734 517.48 600.641 517.558C600.551 517.64 600.573 517.626 600.543 517.658C600.504 517.704 600.474 517.744 600.448 517.782C600.348 517.928 600.282 518.067 600.265 518.126C600.029 518.786 599.975 519.266 599.865 519.845C599.68 520.934 599.609 521.89 599.5 523C600.222 522.152 600.873 521.45 601.579 520.664C601.753 520.48 601.949 520.254 602.109 520.109C602.302 519.898 602.472 519.742 602.622 519.642C602.648 519.633 602.698 519.6 602.669 519.665C602.661 519.681 602.648 519.702 602.625 519.732C602.606 519.754 602.625 519.742 602.558 519.803C602.487 519.863 602.389 519.957 602.133 520.057C601.901 520.156 601.336 520.229 600.865 519.93C600.644 519.8 600.464 519.582 600.401 519.48C600.341 519.389 600.3 519.306 600.269 519.233C600.154 518.939 600.163 518.804 600.154 518.712C600.15 518.53 600.15 518.547 600.142 518.529C600.135 518.519 600.126 518.52 600.114 518.528C600.091 518.549 600.063 518.583 600.034 518.615C599.908 518.779 599.768 518.954 599.616 519.152C599.019 519.902 598.36 520.684 597.703 521.432C596.376 522.947 595.033 524.369 593.673 525.717C590.962 528.397 588.171 530.756 585.485 532.21C585.023 532.459 584.582 532.667 584.141 532.846C579.392 535.229 571.467 532.018 565.357 525.426C564.692 524.684 564.058 523.893 563.5 523Z" fill="#54361C"/>
<path d="M635.781 532.914C635.51 533.912 635.083 534.891 634.566 535.824C630.311 543.848 617.071 550.829 606.779 542.177C605.999 541.503 605.291 540.769 604.645 539.982C601.453 536.033 599.99 531.523 599.391 527.155C599.1 524.962 599.04 522.779 599.196 520.589C599.277 519.498 599.407 518.412 599.627 517.304C599.655 517.184 599.683 517.011 599.716 516.872C599.732 516.801 599.748 516.732 599.766 516.666C599.783 516.58 599.802 516.496 599.822 516.417C599.863 516.275 599.898 516.082 599.992 515.79C600.014 515.711 600.039 515.622 600.095 515.491C600.159 515.361 600.223 515.171 600.531 514.895C600.581 514.82 601.196 514.445 601.692 514.545C602.203 514.616 602.467 514.871 602.606 515.015C602.744 515.167 602.811 515.296 602.841 515.356C602.856 515.388 602.867 515.416 602.878 515.443C602.951 515.643 602.972 515.805 602.977 515.895C602.994 516.606 602.881 517.041 602.796 517.622C602.611 518.68 602.362 519.597 602.097 520.654C601.697 519.642 601.314 518.774 600.908 517.834C600.804 517.592 600.697 517.354 600.592 517.151C600.536 517.025 600.482 516.918 600.429 516.831C600.378 516.75 600.313 516.619 600.268 516.592C600.246 516.571 600.212 516.554 600.249 516.682C600.254 516.698 600.261 516.717 600.27 516.74C600.291 516.781 600.341 516.884 600.467 517.023C600.592 517.154 600.843 517.4 601.342 517.47C601.827 517.567 602.426 517.202 602.472 517.131C602.766 516.866 602.817 516.698 602.869 516.597C602.914 516.496 602.928 516.445 602.94 516.413C602.994 516.305 603.011 516.443 603.047 516.511C603.112 516.717 603.187 516.916 603.265 517.138C603.58 518.019 603.943 518.942 604.314 519.834C605.062 521.635 605.859 523.368 606.69 525.022C608.353 528.326 610.187 531.338 612.201 533.526C612.572 533.928 612.942 534.286 613.317 534.611C617.051 538.313 625.299 538.288 633.23 534.473C634.099 534.034 634.958 533.537 635.781 532.914Z" fill="#54361C"/>
<path d="M587.5 493C581.5 493.4 585 501.167 587.5 505C595.1 513.4 600.333 516.833 602 517.5C603.5 516.167 608.7 511.8 617.5 505C626.3 498.2 618.5 494.167 613.5 493C607.333 492.833 593.5 492.6 587.5 493Z" fill="#54361C" stroke="#54361C"/>
<path d="M595 39.5C585.8 49.9 584.5 81.1667 585 95.5C589.667 106.167 604.4 129.9 626 139.5C647.6 149.1 662 142.5 665.5 139.5C670.333 133.833 676.2 123.5 669 115.5C661.8 107.5 649.333 110.5 644 113C644 108.5 653.9 94.5 647.5 62.5C641.1 30.5 619.833 27 612.5 27.5C610 27.8333 604.2 29.1 595 39.5Z" fill="#FAA032" stroke="#FAA032"/>
<path d="M541.5 81.5C556.3 79.9 577.667 91.1667 586.5 97C599.167 103 625.2 119.7 628 138.5C630.8 157.3 624.333 169 622 172C616.667 175.5 608.3 177.6 599.5 172C590.782 166.452 584.615 151.776 583.529 143.725C581.732 143.177 575.682 141.061 562 136.5C541.6 129.7 526.563 112 525 99.5C524.333 94.1667 526.7 83.1 541.5 81.5Z" fill="#FAA032"/>
<path d="M586.5 97C577.667 91.1667 556.3 79.9 541.5 81.5C526.7 83.1 524.333 94.1667 525 99.5C526.563 112 541.6 129.7 562 136.5C582.4 143.3 585.833 144.667 583.5 143.5C584.5 151.5 590.7 166.4 599.5 172C608.3 177.6 616.667 175.5 622 172C624.333 169 630.8 157.3 628 138.5C625.2 119.7 599.167 103 586.5 97Z" stroke="#FAA032"/>
<path d="M629.5 142C628.967 140.963 628.367 139.879 627.797 138.851C622.543 129.468 616.323 121.03 609.121 113.523C601.929 106.028 593.737 99.4347 584.581 93.8166C583.594 93.2255 582.537 92.5804 581.5 92C582.059 93.0453 582.658 94.1279 583.213 95.1349C588.472 104.492 594.714 112.951 601.905 120.446C609.105 127.952 617.274 134.52 626.426 140.166C627.429 140.778 628.486 141.424 629.5 142Z" fill="#54361C"/>
</svg>
