<svg width="200" height="200" viewBox="0 0 200 200" fill="none" xmlns="http://www.w3.org/2000/svg">
<rect x="23.5" y="86.5" width="150" height="102" rx="3.5" fill="#F2D6A5" stroke="#F2D6A5"/>
<path d="M95.8662 5.7666C97.2606 4.17393 99.7394 4.17393 101.134 5.7666L172.423 87.1943C174.404 89.4572 172.797 93 169.789 93H27.2109C24.2035 93 22.5962 89.4572 24.5771 87.1943L95.8662 5.7666Z" fill="#F2D6A5" stroke="#F2D6A5"/>
<rect x="49" y="111" width="99" height="78" rx="1" fill="#54361C"/>
<path d="M148 113.5C148 101.963 142.785 90.8987 133.502 82.7409C124.219 74.583 111.628 70 98.5 70C85.3718 70 72.7813 74.583 63.4982 82.7409C54.2152 90.8987 49 101.963 49 113.5L98.5 113.5H148Z" fill="#54361C"/>
<ellipse cx="100" cy="133" rx="35" ry="29" fill="#FAA032"/>
<path d="M69.5 98.5L68.5 120.5L90 105.5C89.8333 105 87.6 102.2 80 95C72.4 87.8 69.8333 94.3333 69.5 98.5Z" fill="#FAA032" stroke="#FAA032"/>
<path d="M124 95L112 106.5L134.5 131C134 124.5 133 109.1 133 99.5C133 89.9 127 92.5 124 95Z" fill="#FAA032" stroke="#FAA032"/>
<path d="M64 166C65.6 162 72 155.667 75 153H124.5C127 156.333 132.4 164 134 168C135.6 172 135.667 183.333 135.5 188.5H60C60 182.667 60.8 170 64 166Z" fill="#FAA032" stroke="#FAA032"/>
<ellipse cx="87" cy="132" rx="4" ry="5" fill="#54361C"/>
<ellipse cx="113" cy="133" rx="4" ry="5" fill="#54361C"/>
<path d="M99.2076 142.971C99.6079 143.491 100.392 143.491 100.792 142.971L105.689 136.61C106.195 135.952 105.726 135 104.896 135H95.1036C94.2737 135 93.805 135.952 94.3112 136.61L99.2076 142.971Z" fill="#54361C"/>
<path d="M89 144.584C89.0491 144.912 89.1177 145.242 89.2005 145.568C89.5127 146.77 89.9896 147.947 90.7753 149.014C91.5218 150.029 92.8629 151.191 94.6293 150.917C95.4016 150.788 95.993 150.42 96.484 150.038C99.0429 147.787 100.059 144.887 100.801 141.981C100.877 141.653 100.944 141.327 101 141C100.819 141.278 100.637 141.554 100.452 141.83C98.7813 144.246 97.1594 146.824 95.2446 148.468C94.9042 148.739 94.5538 148.937 94.2797 149.002C92.8277 149.413 90.8696 147.296 89.5462 145.41C89.3579 145.142 89.1743 144.866 89 144.584Z" fill="#54361C"/>
<path d="M112 144.584C111.938 144.921 111.855 145.259 111.756 145.593C110.984 147.865 109.637 151.11 105.929 150.921C105.189 150.81 104.58 150.485 104.071 150.13C101.297 147.953 100.118 144.976 99.2416 142.005C99.1509 141.67 99.0701 141.336 99 141C99.1928 141.284 99.3881 141.564 99.5857 141.844C101.373 144.296 103.145 146.906 105.221 148.493C105.578 148.745 105.943 148.931 106.253 148.998C107.91 149.41 109.971 147.363 111.416 145.424C111.618 145.152 111.814 144.872 112 144.584Z" fill="#54361C"/>
<path d="M76 174C76.5081 174.04 77.0203 174.082 77.5298 174.126C81.8571 174.546 86.3142 174.779 90.1844 175.947C90.3495 176.003 90.5088 176.071 90.6657 176.151C93.9115 178.107 95.0594 183.205 96.162 187.504C96.2789 188.001 96.3913 188.498 96.5 189C96.5241 188.487 96.5377 187.975 96.5396 187.461C96.3618 182.991 96.364 177.567 91.576 174.37C91.3322 174.246 91.079 174.14 90.8156 174.053C86.2928 172.768 81.8717 173.156 77.5175 173.746C77.0095 173.822 76.5011 173.907 76 174Z" fill="#54361C"/>
<path d="M122.5 174.108C121.992 174.148 121.48 174.191 120.97 174.234C116.643 174.654 112.186 174.887 108.316 176.055C108.151 176.112 107.991 176.179 107.834 176.26C104.588 178.216 103.441 183.314 102.338 187.612C102.221 188.109 102.109 188.606 102 189.108C101.976 188.595 101.962 188.084 101.96 187.569C102.138 183.099 102.136 177.675 106.924 174.479C107.168 174.354 107.421 174.248 107.684 174.161C112.207 172.876 116.628 173.265 120.982 173.854C121.49 173.931 121.999 174.015 122.5 174.108Z" fill="#54361C"/>
</svg>
