<svg width="200" height="200" viewBox="0 0 200 200" fill="none" xmlns="http://www.w3.org/2000/svg">
<path d="M169.5 22.3837C159.1 17.9837 150.667 25.1323 148 29.1323V75.1313C155 71.298 170.8 61.3837 176 55.3837C181.2 49.3837 181.833 42.8837 182 40.3837C181.833 36.2171 179.9 26.7837 169.5 22.3837Z" fill="#DA5310" stroke="#DA5310"/>
<path d="M125.5 22.3837C135.9 17.9837 144.333 25.1323 147 29.1323V75.1313C140 71.298 124.2 61.3837 119 55.3837C113.8 49.3837 113.167 42.8837 113 40.3837C113.167 36.2171 115.1 26.7837 125.5 22.3837Z" fill="#DA5310" stroke="#DA5310"/>
<path d="M38.5 166.5L42.5 131L36.5 83.5C36 78.3333 37.0718 69.0157 42.5 66C47.9282 62.9843 53.8333 64.8333 55 65.5C54 63 56.5833 56 63 52.5C74 46.5 80.3333 53.6667 83 57C85.8333 55.3333 93.6 51 100 55C106.4 59 106 67 105 70.5C113.8 68.5 118.833 74 119.5 76.5C120.167 78.1667 121 82.5 119.5 88C117.522 95.2518 118 96.5 114 108.5C110.8 118.1 106.167 126.667 106.5 129C106.833 145 111.9 176 111.5 178C111.1 180 109 180.5 108 180.5H49C40.6 180.9 38.5 177.333 38.5 175.5V166.5Z" fill="#FAA032" stroke="#FAA032"/>
<ellipse cx="54.5" cy="85.5" rx="6.5" ry="7.5" fill="#54361C"/>
<ellipse cx="103.923" cy="90.8002" rx="6.5" ry="7.5" transform="rotate(50 103.923 90.8002)" fill="#54361C"/>
<path d="M77.5 88C75.5 87.2 67.6667 93 64 96C61 98.1667 55.7 103.5 58.5 107.5C62 112.5 65 113 68 113.5C70.4954 113.916 75.5 112.167 77.5 111C78.6667 111.833 81.6 113.6 84 114C86.4 114.4 89.5 114 91.5 113C94.5 112 97.1 107.3 95.5 104.5C95.1 102.5 90 98 87.5 96C85 93.6667 79.5 88.8 77.5 88Z" fill="#54361C" stroke="#54361C"/>
<ellipse cx="91.3792" cy="77.7452" rx="6.5" ry="7.5" transform="rotate(30 91.3792 77.7452)" fill="#54361C"/>
<ellipse cx="71.7036" cy="74.5148" rx="6.5" ry="7.5" transform="rotate(10 71.7036 74.5148)" fill="#54361C"/>
<path d="M147.774 74.1799C147.774 73.9708 147.755 73.6655 147.75 72.9511C147.749 72.6995 147.793 72.5479 147.812 72.3668C147.845 72.0596 147.879 71.7179 147.913 71.5692C147.948 71.4149 147.946 71.2023 148.065 70.469C148.102 70.24 148.146 69.9054 148.265 69.2587C148.335 68.878 148.394 68.3851 148.428 67.8437C148.462 67.3022 148.462 66.7256 148.448 66.3199C148.426 65.6958 148.366 65.2744 148.343 64.9264C148.332 64.7765 148.309 64.6823 148.29 64.3548C148.271 64.0273 148.252 63.4696 148.195 63.4848C148.138 63.5 148.044 64.1049 147.981 64.4685C147.918 64.8321 147.89 64.9361 147.847 65.1787C147.737 65.7977 147.688 66.2361 147.684 66.3456C147.678 66.4839 147.66 66.9866 147.655 67.6641C147.653 67.9163 147.641 67.9824 147.627 68.8624C147.612 69.7425 147.593 71.4343 147.593 72.3343C147.593 73.2342 147.612 73.2909 147.631 73.2965C147.65 73.3021 147.669 73.2548 147.688 72.3042C147.707 71.3536 147.726 69.501 147.731 68.5041C147.736 67.5073 147.727 67.4222 147.722 67.3122C147.703 66.8771 147.688 66.5538 147.736 66.1663C147.768 65.9028 147.841 65.645 147.86 65.5878C147.87 65.5591 147.879 65.5307 147.889 59.7033C147.898 53.8758 147.908 42.2501 147.899 36.2564C147.889 30.2627 147.861 30.2533 147.827 30.2389C147.683 30.1772 147.565 30.1484 147.503 30.1242C147.292 30.042 147.488 30.6525 147.512 30.953C147.576 31.7682 147.488 31.9987 147.464 32.3799C147.432 32.8902 147.45 33.2695 147.436 33.7097C147.423 34.1025 147.431 34.8399 147.426 35.2339C147.42 35.7332 147.393 35.8759 147.378 36.3209C147.365 36.7184 147.373 37.4653 147.369 37.642C147.362 37.8815 147.335 36.8987 147.316 36.6376C147.281 36.1601 147.269 35.7439 147.24 35.3924C147.191 34.7972 147.211 34.3212 147.183 34.1448C147.15 33.9407 147.144 33.6725 147.121 33.4379C147.107 33.3008 147.106 33.175 147.092 32.6639C147.079 32.2002 147.087 31.321 147.096 30.854C147.106 30.387 147.125 30.3587 147.149 30.3299C147.242 30.2178 147.363 30.2149 147.44 30.2007C147.549 30.1803 147.602 30.0909 147.631 30.0718C147.639 30.0665 147.603 30.0528 147.574 30.0526C147.516 30.0523 147.46 30.0906 147.412 30.1334C147.323 30.2135 147.326 30.3953 147.292 30.6054C147.247 30.889 147.259 31.0638 147.211 31.326C147.187 31.4624 147.183 31.5891 147.154 32.0531C147.129 32.4597 147.144 33.2165 147.14 33.625C147.135 34.0334 147.125 34.0712 147.121 34.6578C147.116 35.2444 147.116 36.3786 147.111 36.9771C147.106 37.5755 147.097 37.6039 147.092 38.5778C147.087 39.5518 147.087 41.4705 147.082 45.7056C147.078 49.9407 147.068 56.4341 147.068 59.817C147.068 63.1998 147.077 63.2755 147.082 63.6925C147.087 64.1095 147.087 64.8656 147.078 65.2741C147.065 65.8188 146.944 66.0823 146.887 66.3171C146.851 66.4637 146.839 66.6179 146.782 67.456C146.733 68.1687 146.772 69.5503 146.777 70.2801C146.782 71.1436 146.819 71.3341 146.839 71.5344C146.869 71.8518 146.924 72.1355 146.949 72.3129C146.967 72.445 147.039 72.5754 147.092 72.6901C147.148 72.813 147.22 72.9191 147.254 73.0386C147.292 73.174 147.335 73.3104 147.373 73.4586C147.405 73.5832 147.478 73.6924 147.545 73.8119C147.624 73.9538 147.65 74.0934 147.688 74.2319C147.722 74.3529 147.755 74.4374 147.755 74.4851C147.718 74.5139 147.66 74.5331 147.603 74.5521C147.574 74.5617 147.546 74.5712 147.517 74.6668" stroke="#DA5310" stroke-width="2" stroke-linecap="round"/>
<path d="M147.483 74.9276C147.483 75.0106 147.477 75.159 147.475 75.2457C147.474 75.2954 147.499 75.3326 147.506 75.3681C147.507 75.3752 147.493 75.3778 147.493 75.381C147.493 75.3842 147.502 75.3874 147.512 75.3827C147.617 75.3314 147.547 75.0822 147.552 74.9859C147.555 74.9267 147.576 74.8892 147.634 74.809C147.649 74.7884 147.663 74.7768 147.665 74.7797C147.697 74.8333 147.602 74.8856 147.58 74.9275C147.557 74.9694 147.532 75.0143 147.501 75.0593C147.483 75.0754 147.47 75.0915 147.462 75.1108C147.457 75.1205 147.451 75.13 147.454 75.1495" stroke="#DA5310" stroke-linecap="round"/>
</svg>
