<svg width="200" height="200" viewBox="0 0 200 200" fill="none" xmlns="http://www.w3.org/2000/svg">
<path d="M54.5 53.5C47.7 49.1 46 68.3333 46 78.5L65.5 73.5C64.6667 68.6667 61.3 57.9 54.5 53.5Z" fill="#FAA032" stroke="#FAA032"/>
<path d="M26.5 87.5C16.1 87.5 25.8333 100.5 32 107C35 102.5 40.6 92.9 39 90.5C37.4 88.1 30 87.5 26.5 87.5Z" fill="#FAA032" stroke="#FAA032"/>
<path d="M57.5 71C50.3 72.2 40.1667 83.8333 36 89.5L33 94C30.6667 103 29.4 123.6 43 134C60 147 80.5 123 86.5 117C92.5 111 84 81 82 77.5C80.4 74.7 76.2815 71.7573 73 71C70.8333 70.5 64.7 69.8 57.5 71Z" fill="#FAA032" stroke="#FAA032"/>
<path d="M38 129.5C36.8 131.5 41.1667 133.333 43.5 134C43.8333 131 44.4 124.8 44 124C43.5 123 39.5 127 38 129.5Z" fill="#54361C" stroke="#54361C" stroke-width="2" stroke-linejoin="round"/>
<path d="M175.5 47C176.3 58.6 167.167 64.1667 162.5 65.5C164.833 71.5 169.8 83.3 171 82.5C172.2 81.7 175.833 77.5 177.5 75.5C181.833 71 190.4 59 190 47C189.6 35 183.833 24 181 20C178.333 15.5 171.7 8 166.5 14C161.3 20 167.333 25.8333 171 28C172.167 29.5 174.7 35.4 175.5 47Z" fill="#FAA032" stroke="#FAA032"/>
<path d="M79 75.5C81.6667 74.8333 89.1 71.4 97.5 63C105.9 54.6 118.667 49.1667 124 47.5C130.667 46.3333 146.8 46.6 158 57C169.2 67.4 172 77.3333 172 81C172.667 85.8333 172.7 99.6 167.5 116C167.336 116.517 167.18 117.008 167.032 117.476C167.419 122.976 168.892 133.669 172 136C175.2 138.4 168.333 155 164.5 163C162.667 166.167 158.2 172.8 155 174C151 175.5 137.5 174.5 142.5 165.5C147.5 156.5 148 164.5 153 148.5C157 140.5 151 136.833 147.5 136C146 136.333 142.6 138.8 141 146C139 155 133 162 133 162C133 162 126 170 117.5 165.5C115.1 163.5 115.618 159.5 117.5 157.5C120.167 154.667 125.8 148.4 127 146C128.5 143 130 134 127 125.5C123.5 128 114.6 132.6 107 131C106.5 138.167 104.7 154.1 101.5 160.5C97.5 168.5 96 179 86 177C81.957 176.191 77 175 81 167C83 164.5 85.8 163.8 87 161C88.2 158.2 87.5 151.5 87 148.5C81.5 156.5 69.1 172 63.5 170C57.9 168 57.8333 163.167 58.5 161C58.6667 159.667 61.7 154.2 72.5 141C73.7273 139.5 80 132.5 79 131C78.2 129.8 74.3333 126.833 72.5 125.5L79 75.5Z" fill="#FAA032"/>
<path d="M79 75.5C81.6667 74.8333 89.1 71.4 97.5 63C105.9 54.6 118.667 49.1667 124 47.5C130.667 46.3333 146.8 46.6 158 57C169.2 67.4 172 77.3333 172 81C172.667 85.8333 172.7 99.6 167.5 116C162.3 132.4 165 123.5 167 117C167.333 122.333 168.8 133.6 172 136C175.2 138.4 168.333 155 164.5 163C162.667 166.167 158.2 172.8 155 174C151 175.5 137.5 174.5 142.5 165.5C147.5 156.5 148 164.5 153 148.5C157 140.5 151 136.833 147.5 136C146 136.333 142.6 138.8 141 146C139 155 133 162 133 162C133 162 126 170 117.5 165.5C115.1 163.5 115.618 159.5 117.5 157.5C120.167 154.667 125.8 148.4 127 146C128.5 143 130 134 127 125.5C123.5 128 114.6 132.6 107 131C106.5 138.167 104.7 154.1 101.5 160.5C97.5 168.5 96 179 86 177C81.957 176.191 77 175 81 167C83 164.5 85.8 163.8 87 161C88.2 158.2 87.5 151.5 87 148.5C81.5 156.5 69.1 172 63.5 170C57.9 168 57.8333 163.167 58.5 161C58.6667 159.667 61.7 154.2 72.5 141C73.7273 139.5 80 132.5 79 131C78.2 129.8 74.3333 126.833 72.5 125.5L79 75.5Z" stroke="#FAA032"/>
<path d="M58 124C57.953 124.416 57.8915 124.826 57.8182 125.234C57.159 128.886 55.5568 132.246 52.7807 134.135C51.8694 134.769 50.8523 135.256 49.7562 135.622C49.7526 135.623 49.7418 135.626 49.7382 135.627C47.7117 136.431 45.2567 135.944 43.6657 134.032C43.4067 133.721 43.1738 133.38 43 133C43.0451 133.416 43.1696 133.833 43.3414 134.23C44.2926 136.68 47.5281 138.219 50.2618 137.373L50.2438 137.378C51.5392 137.081 52.8045 136.556 53.9227 135.777C57.4161 133.395 58.642 128.964 58.198 125.246C58.1517 124.825 58.0862 124.41 58 124Z" fill="#54361C"/>
<path d="M86.5 150C86.6452 149.551 86.767 149.087 86.8711 148.624C87.7516 144.452 87.5646 139.839 85.279 135.787C84.809 134.98 84.2421 134.211 83.5731 133.524C81.1657 131.032 78.1818 129.191 75.1802 127.731C74.7727 127.514 74.3534 127.306 74 127C74.1966 127.432 74.521 127.813 74.8236 128.176C77.119 130.722 79.3884 133.004 81.4269 135.476C81.8921 136.037 82.3087 136.648 82.6865 137.297C84.5289 140.534 85.571 144.496 86.3013 148.607C86.3775 149.065 86.4462 149.532 86.5 150Z" fill="#54361C"/>
<path d="M147.5 136.5C146.887 135.963 146.264 135.423 145.653 134.885C140.229 130.034 134.611 125.025 131.798 118.889C131.423 118.019 131.131 117.132 130.951 116.236C129.795 110.382 130.259 104.151 131.161 97.9312C131.275 97.1199 131.399 96.3079 131.5 95.5C131.206 96.2582 130.899 97.0184 130.609 97.7892C128.364 103.677 126.975 110.196 128.048 116.764C128.242 117.921 128.593 119.031 129.043 120.075C132.462 127.375 138.959 131.765 145.326 135.352C146.044 135.745 146.775 136.129 147.5 136.5Z" fill="#54361C"/>
<path d="M86 177.5C82.5 177.5 82 176.5 81.5 176C80.7 174 85.1667 170.833 88 169C83.6 173.8 85.1667 176.333 86 177.5Z" fill="#54361C"/>
<path d="M81.5 176C81.7637 176.308 82.0266 176.634 82.3817 176.858C83.4594 177.528 84.7694 177.615 86 177.661C86.1474 177.663 86.214 177.528 86.1307 177.407C84.5541 175.436 85.386 172.774 86.7868 170.888C87.2123 170.283 87.68 169.715 88.1781 169.163C88.3702 168.953 88.1075 168.642 87.8688 168.797C85.4934 170.453 82.7998 172.062 81.5016 174.788C81.366 175.179 81.3273 175.623 81.5 176C81.3596 175.61 81.4329 175.189 81.5904 174.821C83.0294 172.286 85.7444 170.812 88.1312 169.203L87.8219 168.837C87.3045 169.393 86.8191 169.973 86.3778 170.6C84.917 172.505 84.0738 175.599 85.8693 177.593L86 177.339C84.7883 177.354 83.5138 177.345 82.4309 176.776C82.0729 176.587 81.7896 176.288 81.5 176Z" fill="#54361C"/>
<path d="M62.5 170C59.5 168.5 59.1667 167.5 59 167C59 165.4 62.3333 163 64 162C61.2 165.6 62 168.833 62.5 170Z" fill="#54361C"/>
<path d="M59 167C59.0832 167.33 59.2394 167.651 59.4476 167.926C60.2268 168.919 61.3342 169.564 62.4207 170.159C62.5841 170.243 62.733 170.1 62.663 169.93C62.0268 168.256 62.1156 166.353 62.7511 164.685C63.0932 163.776 63.5882 162.925 64.1804 162.14C64.3417 161.932 64.1081 161.668 63.8824 161.804C62.137 162.942 60.3729 164.197 59.2742 166.012C59.113 166.318 58.9851 166.656 59 167C59.0192 166.657 59.1739 166.344 59.3562 166.06C60.5725 164.395 62.378 163.261 64.1176 162.196L63.8196 161.86C63.1813 162.657 62.6459 163.545 62.2832 164.508C61.6074 166.28 61.564 168.324 62.337 170.07L62.5793 169.841C61.4795 169.313 60.3582 168.76 59.5213 167.866C59.2962 167.617 59.1156 167.322 59 167Z" fill="#54361C"/>
<ellipse cx="54" cy="108" rx="4" ry="6" transform="rotate(-10 54 108)" fill="#54361C"/>
<path d="M40.5 162C40.7785 162.531 41.0817 163.099 41.3722 163.638C44.0213 168.551 47.1577 173.296 51.2781 177.236C55.2919 181.074 60.9061 184.515 66.6848 183.484C67.3095 183.372 67.9058 183.211 68.5 183C67.8747 183.081 67.2685 183.114 66.6531 183.106C61.0699 182.979 56.5695 179.455 52.6568 175.787C48.7242 172.029 45.2325 167.738 41.6875 163.426C41.2978 162.955 40.889 162.457 40.5 162Z" fill="#54361C"/>
<path d="M26 155.5C14.4 153.9 10.1667 161.5 9.5 165.5C9.5 165.167 9.4 165.2 9 168C8.6 170.8 11.1667 173.5 12.5 174.5C19 175.5 33.2 176.9 38 174.5C42.8 172.1 43 165.833 42.5 163C41.1667 157.333 37.5 151.5 26 155.5Z" fill="#DA5310" stroke="#DA5310" stroke-linejoin="round"/>
<ellipse cx="7.98296" cy="167.389" rx="2.5" ry="3" transform="rotate(-10 7.98296 167.389)" fill="#54361C"/>
<ellipse cx="17.7955" cy="162.705" rx="2.5" ry="3.5" transform="rotate(-5 17.7955 162.705)" fill="#54361C"/>
<path d="M17.9849 150.389C15.1473 151.174 16.1918 154.18 17.0688 155.584C17.7887 156.604 19.7311 158.09 21.7414 155.873C23.7518 153.656 23.1288 151.831 22.566 151.197C22.2213 150.6 20.8225 149.603 17.9849 150.389Z" fill="#DA5310" stroke="#DA5310" stroke-width="2" stroke-linejoin="round"/>
</svg>
