<svg width="200" height="200" viewBox="0 0 200 200" fill="none" xmlns="http://www.w3.org/2000/svg">
<ellipse cx="109" cy="75.5" rx="56" ry="54.5" fill="#FAA032"/>
<rect x="148" y="102" width="45" height="84" rx="5" fill="#9A973B"/>
<rect x="7" y="125" width="152" height="61" rx="6" fill="#F2D6A5"/>
<path d="M7.5 84V126V128.5L20 123.5V85.5C19 81 16 73.5 11 75C8.93678 75.619 7.83333 80.8333 7.5 84Z" fill="#FAA032" stroke="#FAA032"/>
<path d="M54 88.5C45.2 84.9 38.8333 91 37.5 94.5C34.8333 86 27.5 72.4 19.5 86C14.3 94.8 13 109 13 115V126L16 124L76 106C75.6667 103.167 74.1 97.5 68.5 97.5C65.7 97.5 63.1667 100.5 62.5 102C62.8333 99 62.8 92.1 54 88.5Z" fill="#9A973B" stroke="#9A973B"/>
<path d="M7.5 126V130L121.5 152.5C125.833 135.667 133.2 102 128 102C122.8 102 84.8333 105.667 66.5 107.5C61.5 107.833 48.4 109.6 36 114C23.6 118.4 16.5 121.5 14.5 122.5C9.7 124.5 7.83333 125.667 7.5 126Z" fill="#F2D6A5" stroke="#F2D6A5"/>
<path d="M158.5 99.5C176.1 99.5 185.5 101.167 188 102L188.5 185.5H127C132.333 182.667 143.8 175.8 147 169C150.2 162.2 141.667 155.833 137 153.5C128.667 150 109.5 142.5 99.5 140.5C89.5 138.5 84.6667 135 83.5 133.5C81.1667 131.5 78.8 125.8 88 119C92.8 113.4 116 105.333 127 102C130.167 101.167 140.9 99.5 158.5 99.5Z" fill="#9A973B"/>
<path d="M188 102C182.029 100.392 175.805 100.027 169.646 99.6523C165.936 99.4601 162.224 99.3699 158.5 99.3527C147.95 99.3773 137.338 99.6033 126.93 101.733L126.92 101.736C113.434 106.227 99.2278 109.72 87.6933 118.737L87.7599 118.675C85.391 120.437 83.1127 122.509 81.7878 125.273C80.3948 127.975 80.7554 131.754 83.213 133.835L83.1519 133.771C87.6361 138.157 93.6501 139.682 99.408 140.96C112.215 143.951 124.583 148.983 136.807 153.96L136.777 153.947C138.585 154.86 140.309 155.992 141.879 157.28C145.335 160.059 148.653 164.585 146.55 168.788C142.35 176.251 134.248 180.86 126.777 185.079L127 185.976C147.5 185.952 168 185.91 188.5 185.849L188.852 185.848L188.849 185.498C188.655 163.844 188.441 142.189 188.206 120.535C188.139 114.357 188.07 108.178 188 102C188.004 108.179 188.009 114.358 188.016 120.536C188.041 142.192 188.086 163.847 188.151 185.502L188.5 185.151C168 185.09 147.5 185.048 127 185.024L127.223 185.921C134.796 181.633 142.911 177.189 147.45 169.212C149.852 164.305 146.046 159.344 142.515 156.508C140.881 155.17 139.113 154.007 137.223 153.053L137.193 153.04C124.917 148.048 112.593 143.042 99.592 140.04C93.9546 138.841 87.885 137.163 83.8481 133.229L83.787 133.165C81.6765 131.379 81.2964 128.125 82.556 125.63C83.758 123.082 85.9354 121.05 88.2401 119.325L88.3067 119.263C99.293 110.596 113.715 106.79 127.08 102.264L127.07 102.267C137.325 100.091 147.975 99.764 158.5 99.6473C162.22 99.6308 165.929 99.686 169.637 99.8421C175.794 100.157 182.015 100.457 188 102Z" fill="#9A973B"/>
<ellipse cx="119.5" cy="90.5" rx="13.5" ry="11.5" fill="#54361C"/>
<path d="M113 71C111.4 69.4 109.333 78.6667 108.5 83.5C107.3 86.3 107.333 87 107.5 87L131 85C130.667 81.1667 129.6 73.1 128 71.5C126.4 69.9 123.667 76.5 122.5 80H119C117.667 77.6667 114.6 72.6 113 71Z" fill="#54361C" stroke="#54361C"/>
<path d="M104 123C105.346 120.308 110.5 106.667 112.5 99.5C117.136 99.6667 126.427 99.9 126.5 99.5C125.7 102.7 128.5 116.5 129 123C129.4 137 128.167 142.833 127.5 144C126.5 145.833 123.7 150 120.5 152C117.3 154 112.167 152.833 110 152C108.333 155.167 102.9 162.8 94.5 168C86.1 173.2 80.3333 173.167 78.5 172.5C77.3333 172 74.9 170.4 74.5 168C74.1 165.6 76.3333 163.667 77.5 163C80.5 161.333 88.1 157.5 94.5 155.5C100.9 153.5 101.833 149.667 101.5 148C99.5 142.4 99.6667 136.667 100 134.5C100.5 131.333 102.5 126 104 123Z" fill="#54361C" stroke="#54361C"/>
</svg>
