<svg width="200" height="200" viewBox="0 0 200 200" fill="none" xmlns="http://www.w3.org/2000/svg">
<rect x="130" y="81" width="54" height="77" fill="#54361C"/>
<path d="M184 81.5C184 78.2826 183.302 75.0967 181.945 72.1243C180.588 69.1518 178.599 66.4509 176.092 64.1759C173.585 61.9008 170.608 60.0962 167.332 58.865C164.057 57.6337 160.546 57 157 57C153.454 57 149.943 57.6337 146.668 58.865C143.392 60.0962 140.415 61.9008 137.908 64.1759C135.401 66.4509 133.412 69.1518 132.055 72.1243C130.698 75.0967 130 78.2826 130 81.5L157 81.5H184Z" fill="#54361C"/>
<path d="M54.5 100C54.9 92.8 59.5 87.1667 61 86H112C114 88 118.3 94.2 119.5 103C120.7 111.8 125 116.333 127 117.5C130.333 119.333 137.8 125.5 141 135.5C144.2 145.5 142.333 156.667 141 161C146.667 160.667 157.3 157.2 154.5 146C151.7 134.8 152.667 129 153.5 127.5C153.833 126.667 155.7 124.4 160.5 122C165.3 119.6 169.5 124.667 171 127.5C171.167 130.167 171.4 137.9 171 147.5C170.6 157.1 167.833 162.167 166.5 163.5C164.5 166 158.5 171.9 150.5 175.5C140.5 180 135.68 175.879 136 175.5C132 180.3 128.667 181.833 127.5 182C125.5 183.6 111.333 183.333 104.5 183C100.9 183 99 181.667 98.5 181C97.7 179.4 94.5 179 93 179C92.6 182.2 84.1667 183 80 183C78 184.6 74.1667 183.667 72.5 183C66.5 183.8 65 181.333 65 180C58.3333 180.167 44.2 180.4 41 180C37.8 179.6 37.3333 175.833 37.5 174C37.6667 173.333 38.8 171.3 42 168.5C45.2 165.7 50.3333 165.333 52.5 165.5C50.9 164.3 48.5 160.333 47.5 158.5C46.1667 155.667 43.8 148.9 45 144.5C46.5 139 51.5 131 52.5 127.5C53.3 124.7 50.8333 123.333 49.5 123C39.9 119.4 33.8333 116.5 32 115.5C24 111.5 19.3333 101.5 18 97C16.8333 92.8333 14.5 83.2 14.5 78C14.5 72.8 17.5 70.8333 19 70.5C20.2 67.7 24.1667 68 26 68.5C32.8 66.9 35.8333 72.8333 36.5 76C37 78.8333 38.8 86 42 92C45.2 98 51.6667 99.8333 54.5 100Z" fill="#FAA032" stroke="#FAA032"/>
<ellipse cx="85.5" cy="64.5" rx="38.5" ry="29.5" fill="#FAA032"/>
<path d="M50 27.5C43.9782 26.5736 46.6667 45.5 49 56L69.5 39C65.5 34.5 56.5 28.5 50 27.5Z" fill="#FAA032" stroke="#FAA032"/>
<path d="M113.5 22C110.7 17.6 99 30 94 37.5L118.5 53.5C117.667 44.3333 116.3 26.4 113.5 22Z" fill="#FAA032" stroke="#FAA032"/>
<ellipse cx="72" cy="62.5" rx="5" ry="5.5" transform="rotate(-10 72 62.5)" fill="#54361C"/>
<ellipse cx="97.8791" cy="61.2847" rx="5" ry="5.5" fill="#54361C"/>
<path d="M84.3306 73.47C85.1211 74.668 86.8789 74.668 87.6694 73.47L90.8818 68.6015C91.7591 67.2718 90.8055 65.5 89.2124 65.5H82.7876C81.1945 65.5 80.2409 67.2718 81.1182 68.6015L84.3306 73.47Z" fill="#54361C"/>
<path d="M95.5 75C95.4198 75.2404 95.3242 75.4793 95.2189 75.7122C94.7744 76.6768 94.1719 77.5907 93.2787 78.3307C92.4606 79.0463 90.8547 79.6834 89.4881 78.8532C89.308 78.7491 89.136 78.6346 88.9749 78.5162C86.9899 76.9665 85.9301 74.9014 85.2073 72.734C85.1307 72.4913 85.0604 72.2458 85 72C85.1769 72.1809 85.3551 72.36 85.5325 72.5373C87.1342 74.1008 88.6411 75.7375 90.1592 76.9046C90.2777 76.9916 90.397 77.074 90.5119 77.1468C91.3021 77.8491 93.3778 76.7105 94.919 75.4788C95.114 75.326 95.3089 75.1663 95.5 75Z" fill="#54361C"/>
<path d="M18.5 70C18.5845 70.1787 18.6706 70.3577 18.7555 70.534C19.5177 72.1224 20.2566 73.5537 20.9146 74.9457C21.5647 76.344 22.1635 77.7 22.4282 79.4162C22.4566 79.6079 22.4813 79.7996 22.5 80C22.6107 79.8319 22.7113 79.661 22.8029 79.4795C23.6502 77.8496 23.5214 75.7383 22.7242 74.094C21.9349 72.4243 20.5922 71.1326 19.0308 70.2721C18.8567 70.1761 18.6787 70.0844 18.5 70Z" fill="#54361C"/>
<path d="M26 68C26.0479 68.1823 26.097 68.3643 26.1463 68.5449C26.5844 70.1648 27.0273 71.6193 27.4772 73.032C27.922 74.448 28.3883 75.8233 28.737 77.4485C28.7752 77.6302 28.812 77.8117 28.8463 78C28.9433 77.8351 29.0324 77.6686 29.1142 77.4947C29.8585 75.9363 29.91 74.0592 29.3836 72.4274C28.862 70.7832 27.811 69.369 26.4614 68.3326C26.3108 68.2163 26.1565 68.105 26 68Z" fill="#54361C"/>
<path d="M52 126C52.1713 125.74 52.3266 125.473 52.4746 125.198C53.7862 122.697 54.4875 119.952 54.7652 117.191C55.0357 114.425 54.8456 111.629 54.2234 108.904C54.1543 108.603 54.0799 108.303 54 108C53.9467 108.309 53.8945 108.613 53.8436 108.916C53.3851 111.658 53.0354 114.323 52.7747 116.996C52.5037 119.669 52.3682 122.336 52.1115 125.086C52.0799 125.391 52.0467 125.692 52 126Z" fill="#54361C"/>
<path d="M77 75C77.0802 75.2404 77.1758 75.4793 77.2811 75.7122C77.7256 76.6768 78.3281 77.5907 79.2213 78.3307C80.0394 79.0463 81.6453 79.6834 83.0119 78.8532C83.192 78.7491 83.364 78.6346 83.5251 78.5162C85.5101 76.9665 86.5699 74.9014 87.2927 72.734C87.3693 72.4913 87.4396 72.2458 87.5 72C87.3231 72.1809 87.1449 72.36 86.9675 72.5373C85.3658 74.1008 83.8589 75.7375 82.3408 76.9046C82.2223 76.9916 82.103 77.074 81.9881 77.1468C81.1979 77.8491 79.1222 76.7105 77.581 75.4788C77.386 75.326 77.1911 75.1663 77 75Z" fill="#54361C"/>
<path d="M134 178.5C134.279 178.283 134.564 178.047 134.838 177.806C137.307 175.63 139.225 172.83 140.463 169.764C141.704 166.696 142.249 163.364 142.081 160.088C142.062 159.728 142.035 159.366 142 159C141.902 159.354 141.803 159.702 141.703 160.044C140.798 163.165 139.776 166.12 138.609 169.015C137.435 171.909 136.139 174.745 134.544 177.566C134.366 177.879 134.179 178.195 134 178.5Z" fill="#54361C"/>
<path d="M65 181.5C64.5363 180.797 64.2492 179.984 64.2748 179.182C64.7361 175.495 68.3759 173.286 71.2994 171.143L71.5865 170.947L71.623 170.544C71.9638 166.781 72.2375 163.014 72.4441 159.243C72.8582 151.687 73.0027 144.115 72.8775 136.529C72.8636 135.686 72.8464 134.843 72.8258 134C72.7133 134.836 72.604 135.672 72.4981 136.508C71.5449 144.035 70.8612 151.577 70.4471 159.134C70.2405 162.904 70.1011 166.678 70.0287 170.456L70.3523 169.857C67.5242 172.273 63.8615 174.981 63.8953 179.202C63.9956 180.089 64.4337 180.881 65 181.5Z" fill="#54361C"/>
<path d="M93.1994 179.5C92.7956 178.766 92.4755 177.991 92.2076 177.205C91.5386 175.207 91.1928 173.021 91.7675 171.142C93.5274 166.156 95.4192 161.013 96.9296 155.833C98.9706 148.582 101.071 141.137 100.77 133.465C100.688 132.599 100.555 131.764 100.199 131C100.427 131.808 100.428 132.625 100.39 133.473C99.6187 140.902 97.0432 148.047 95.0115 155.266C93.5052 160.434 91.9074 165.554 90.6312 170.858C90.1904 173.196 90.8968 175.42 91.8574 177.353C92.2434 178.11 92.6835 178.839 93.1994 179.5Z" fill="#54361C"/>
<path d="M105.197 183.5C105.103 183.311 105.028 183.131 104.958 182.945C104.335 181.24 104.887 179.941 105.763 178.865C106.665 177.784 107.959 176.875 109.626 176.21C109.813 176.137 109.999 176.067 110.197 176C109.999 175.933 109.804 175.877 109.598 175.831C107.784 175.408 105.577 175.952 104.221 177.592C102.758 179.145 102.956 182.143 104.658 183.178C104.833 183.304 105.008 183.405 105.197 183.5Z" fill="#54361C"/>
<path d="M80 183.5C80.1163 183.416 80.2256 183.322 80.3308 183.219C81.2607 182.301 81.7839 181.106 81.8863 179.869C81.9881 178.637 81.6356 177.315 80.7949 176.316C80.702 176.206 80.6037 176.1 80.5 176C80.4772 176.143 80.4532 176.281 80.4288 176.418C80.202 177.64 79.9725 178.651 79.8927 179.71C79.8023 180.765 79.8687 181.846 79.9774 183.079C79.9865 183.219 79.9967 183.357 80 183.5Z" fill="#54361C"/>
<path d="M98.3536 182C98.3536 182 98.3536 182 98.3536 182C97.6905 181.016 97.3369 179.865 97.2511 178.714C96.9912 175.441 98.9129 172.288 101.707 170.93C104.513 169.512 107.861 169.625 110.968 170.34L111.63 168.727C108.583 166.618 106.361 163.257 105.265 159.67C103.208 153.022 105.106 145.716 108.403 139.425L108.393 139.442C110.055 136.561 112.023 133.769 114.341 131.321C115.156 130.476 116.026 129.673 117 129C115.955 129.56 114.99 130.274 114.081 131.044C111.482 133.286 109.257 135.926 107.326 138.794L107.316 138.811C103.502 144.993 101.068 152.83 103.353 160.255C104.583 164.249 107.071 167.917 110.671 170.219L111.332 168.605C107.968 167.963 104.203 168.006 101.107 169.851C98.0075 171.632 96.239 175.381 96.8741 178.762C97.0856 179.956 97.5835 181.097 98.3536 182Z" fill="#54361C"/>
<path d="M40.5 180.5C40.4902 180.331 40.4968 180.167 40.5138 180.009C40.723 178.611 41.3432 177.526 41.8932 176.446C42.48 175.379 43.0593 174.335 44.1223 173.327C44.2426 173.216 44.3658 173.108 44.5 173C44.3292 172.98 44.1593 172.97 43.9845 172.973C42.3977 172.989 40.8689 174.084 40.1303 175.501C39.3833 176.897 39.2261 178.751 40.1486 180.114C40.2525 180.259 40.3708 180.391 40.5 180.5Z" fill="#54361C"/>
<path d="M48 181C47.8816 180.866 47.7838 180.733 47.6947 180.595C46.9313 179.328 47.2991 178.243 47.6036 177.065C47.9663 175.896 48.3995 174.675 49.2027 173.416C49.2942 173.277 49.3938 173.137 49.5 173C49.3276 173.022 49.153 173.058 48.9823 173.106C47.4254 173.559 46.1644 174.889 45.6854 176.499C45.1429 178.025 45.7308 180.443 47.473 180.904C47.6497 180.957 47.8219 180.985 48 181Z" fill="#54361C"/>
<path d="M72.5 183.5C72.5395 183.355 72.5965 183.221 72.6562 183.092C73.2322 181.956 73.8789 181.024 74.3464 179.961C74.8262 178.906 75.1834 177.763 75.4237 176.446C75.4494 176.301 75.4748 176.152 75.5 176C75.3656 176.076 75.2353 176.153 75.1092 176.232C73.9667 176.955 73.0674 177.942 72.5251 179.135C71.9969 180.314 71.7697 181.752 72.2762 183.091C72.3362 183.237 72.4082 183.379 72.5 183.5Z" fill="#54361C"/>
</svg>
